<mxfile compressed="false" type="device">
    <diagram id="Page-1" name="Page-1">
      <mxGraphModel arrows="1" connect="1" dx="1360" dy="864" fold="1" grid="1" gridSize="10" guides="1" math="0" page="1" pageHeight="1169" pageScale="1" pageWidth="827" shadow="1" tooltips="1">
        <root>
          <mxCell id="0" />   
          <mxCell id="1" parent="0" />
        <object id="switch-1" label="switch-1" top_label="10.1.1.1">
      <mxCell parent="1" style="rounded=1;whiteSpace=wrap;html=1;" vertex="1">
          <mxGeometry as="geometry" height="60" width="120" x="200" y="150" />
      </mxCell>
    </object><object id="switch-2" label="switch-2" top_label="10.2.2.2">
      <mxCell parent="1" style="rounded=1;whiteSpace=wrap;html=1;" vertex="1">
          <mxGeometry as="geometry" height="60" width="120" x="200" y="150" />
      </mxCell>
    </object><object id="switch-3" label="switch-3" top_label="10.3.3.3">
      <mxCell parent="1" style="rounded=1;whiteSpace=wrap;html=1;" vertex="1">
          <mxGeometry as="geometry" height="60" width="120" x="200" y="150" />
      </mxCell>
    </object><object id="switch-4" label="switch-4" top_label="10.4.4.4">
      <mxCell parent="1" style="rounded=1;whiteSpace=wrap;html=1;" vertex="1">
          <mxGeometry as="geometry" height="60" width="120" x="200" y="150" />
      </mxCell>
    </object><mxCell connectable="0" id="84ba0c9bd0afda09982887bf516716e3-src" parent="84ba0c9bd0afda09982887bf516716e3" style="labelBackgroundColor=#ffffff;;" value="GE4/6" vertex="1">
      <mxGeometry as="geometry" relative="1" x="-0.5">
        <mxPoint as="offset" />
      </mxGeometry>
    </mxCell><mxCell connectable="0" id="84ba0c9bd0afda09982887bf516716e3-trgt" parent="84ba0c9bd0afda09982887bf516716e3" style="labelBackgroundColor=#ffffff;;" value="GE1/5" vertex="1">
      <mxGeometry as="geometry" relative="-1" x="0.5">
        <mxPoint as="offset" />
      </mxGeometry>
    </mxCell><object description="{&#10;    &quot;switch-1:GE4/6&quot;: {&#10;        &quot;access_vlan&quot;: &quot;2150&quot;,&#10;        &quot;description&quot;: &quot;switch-2: access&quot;,&#10;        &quot;is_l2&quot;: true,&#10;        &quot;l2_mode&quot;: &quot;access&quot;&#10;    },&#10;    &quot;switch-2:GE1/5&quot;: {&#10;        &quot;access_vlan&quot;: &quot;2150&quot;,&#10;        &quot;description&quot;: &quot;switch-1: access&quot;,&#10;        &quot;is_l2&quot;: true,&#10;        &quot;l2_mode&quot;: &quot;access&quot;&#10;    }&#10;}" id="84ba0c9bd0afda09982887bf516716e3" label="" source="switch-1" src_label="GE4/6" target="switch-2" trgt_label="GE1/5">
      <mxCell edge="1" parent="1" source="switch-1" style="endArrow=none;" target="switch-2">
          <mxGeometry as="geometry" relative="1" />
      </mxCell>
    </object><mxCell connectable="0" id="9ab0f2fa13ae7f93a0a578f943ab7903-src" parent="9ab0f2fa13ae7f93a0a578f943ab7903" style="labelBackgroundColor=#ffffff;;" value="GE1/1" vertex="1">
      <mxGeometry as="geometry" relative="1" x="-0.5">
        <mxPoint as="offset" />
      </mxGeometry>
    </mxCell><mxCell connectable="0" id="9ab0f2fa13ae7f93a0a578f943ab7903-trgt" parent="9ab0f2fa13ae7f93a0a578f943ab7903" style="labelBackgroundColor=#ffffff;;" value="GE0/1" vertex="1">
      <mxGeometry as="geometry" relative="-1" x="0.5">
        <mxPoint as="offset" />
      </mxGeometry>
    </mxCell><object description="{&#10;    &quot;switch-1:GE1/1&quot;: {&#10;        &quot;description&quot;: &quot;switch-3:Gi0/1&quot;,&#10;        &quot;is_l2&quot;: true,&#10;        &quot;l2_mode&quot;: &quot;trunk&quot;,&#10;        &quot;mtu&quot;: &quot;9216&quot;,&#10;        &quot;trunk_vlans&quot;: &quot;1771,1887&quot;&#10;    },&#10;    &quot;switch-3:GE0/1&quot;: {}&#10;}" id="9ab0f2fa13ae7f93a0a578f943ab7903" label="" source="switch-1" src_label="GE1/1" target="switch-3" trgt_label="GE0/1">
      <mxCell edge="1" parent="1" source="switch-1" style="endArrow=none;" target="switch-3">
          <mxGeometry as="geometry" relative="1" />
      </mxCell>
    </object><mxCell connectable="0" id="f934e0e2e2ac1819699a53688126ed8f-src" parent="f934e0e2e2ac1819699a53688126ed8f" style="labelBackgroundColor=#ffffff;;" value="GE1/2" vertex="1">
      <mxGeometry as="geometry" relative="1" x="-0.5">
        <mxPoint as="offset" />
      </mxGeometry>
    </mxCell><mxCell connectable="0" id="f934e0e2e2ac1819699a53688126ed8f-trgt" parent="f934e0e2e2ac1819699a53688126ed8f" style="labelBackgroundColor=#ffffff;;" value="GE0/10" vertex="1">
      <mxGeometry as="geometry" relative="-1" x="0.5">
        <mxPoint as="offset" />
      </mxGeometry>
    </mxCell><object description="{&#10;    &quot;switch-1:GE1/2&quot;: {&#10;        &quot;description&quot;: &quot;SW4 Routing Peering&quot;,&#10;        &quot;ip&quot;: &quot;10.0.0.1 255.255.255.0&quot;,&#10;        &quot;vrf&quot;: &quot;VRF1&quot;&#10;    },&#10;    &quot;switch-4:GE0/10&quot;: {}&#10;}" id="f934e0e2e2ac1819699a53688126ed8f" label="" source="switch-1" src_label="GE1/2" target="switch-4" trgt_label="GE0/10">
      <mxCell edge="1" parent="1" source="switch-1" style="endArrow=none;" target="switch-4">
          <mxGeometry as="geometry" relative="1" />
      </mxCell>
    </object></root>
      </mxGraphModel>
    </diagram></mxfile>